<?xml version="1.0" encoding="UTF-8" standalone="no"?>
<svg
   xml:space="preserve"
   width="655.359"
   height="655.359"
   style="shape-rendering:geometricPrecision;text-rendering:geometricPrecision;image-rendering:optimizeQuality;fill-rule:evenodd;clip-rule:evenodd"
   viewBox="0 0 6.827 6.827"
   version="1.1"
   id="svg1"
   sodipodi:docname="logo.svg"
   inkscape:version="1.3.2 (091e20e, 2023-11-25, custom)"
   xmlns:inkscape="http://www.inkscape.org/namespaces/inkscape"
   xmlns:sodipodi="http://sodipodi.sourceforge.net/DTD/sodipodi-0.dtd"
   xmlns="http://www.w3.org/2000/svg"
   xmlns:svg="http://www.w3.org/2000/svg"><sodipodi:namedview
     id="namedview1"
     pagecolor="#505050"
     bordercolor="#eeeeee"
     borderopacity="1"
     inkscape:showpageshadow="0"
     inkscape:pageopacity="0"
     inkscape:pagecheckerboard="0"
     inkscape:deskcolor="#505050"
     inkscape:zoom="1.1856097"
     inkscape:cx="327.6795"
     inkscape:cy="327.6795"
     inkscape:window-width="1920"
     inkscape:window-height="991"
     inkscape:window-x="-9"
     inkscape:window-y="-9"
     inkscape:window-maximized="1"
     inkscape:current-layer="svg1" /><defs
     id="defs1"><style
       id="style1">.fil1{fill:#fffffe;fill-rule:nonzero}</style></defs><g
     id="Layer_x0020_1"><rect
       width="6.827"
       height="6.827"
       rx=".853"
       ry=".853"
       style="fill:#000000;fill-opacity:1"
       id="rect1" /><path
       class="fil1"
       d="M1.42 3.5h3.987a.358.358 0 0 1 .237.09.257.257 0 0 1 .088.22l-.184 1.452a.322.322 0 0 1-.325.289H1.604a.322.322 0 0 1-.326-.29l-.185-1.45a.257.257 0 0 1 .088-.22.357.357 0 0 1 .238-.09zM1.286 5.613c-.055 0-.1.08-.1.18 0 .1.045.18.1.18H5.54c.055 0 .1-.08.1-.18 0-.1-.045-.18-.1-.18H1.286zm3.658.095a.086.086 0 1 1 0 .17.086.086 0 0 1 0-.17zm-3.56-.018h.072v.212h-.072V5.69zm.17 0h.072v.212h-.072V5.69zm.17 0h.072v.212h-.072V5.69z"
       id="path1"
       style="fill:#ffffff;fill-opacity:1" /><g
       id="_215581760"><path
         id="_215582312"
         class="fil1"
         d="M4.161 2.52c.235.093.437.269.58.497.072.115.129.245.167.384h-.711v-.454H4.16V2.52zm-.579.88-.02-.176.16-.216a.054.054 0 0 0 .015-.036c0-.034-.032-.06-.07-.06a.673.673 0 0 1-.495 0 .08.08 0 0 0-.038.009c-.033.017-.043.055-.022.083l.163.22-.02.177h-.463v-.454h-.045v-.43a.07.07 0 0 1 .022.02.855.855 0 0 0 .647.303.936.936 0 0 0 .374-.083.774.774 0 0 0 .28-.219.07.07 0 0 1 .02-.017v.426h-.04V3.4h-.468zm-1.664 0a1.45 1.45 0 0 1 .172-.389c.144-.228.349-.404.587-.495v.43h-.032v.455h-.727z"
         style="fill:#ffffff;fill-opacity:1" /><path
         id="_215581808"
         d="M4.016 1.491a.121.121 0 0 1 .048.227.342.342 0 0 1-.07.187c-.063.079-.156.107-.255.106a1.784 1.784 0 0 1-.07-.002.339.339 0 0 1-.256-.153.339.339 0 0 1-.286.155h-.04c-.098.001-.191-.027-.255-.106a.342.342 0 0 1-.07-.187.121.121 0 0 1 .049-.227.269.269 0 0 1 .02-.03c.065-.078.158-.107.256-.106h.04l.03.002a.34.34 0 0 1 .246.134h.02a.322.322 0 0 1 .247-.134l.03-.001.04-.001c.098 0 .19.028.255.106l.02.03zm-.603 1.147h.004a.846.846 0 0 0 .556-.222.847.847 0 0 0 .242-.548 6.794 6.794 0 0 0 .007-.217c.002-.306-.094-.504-.246-.627-.148-.12-.346-.165-.555-.17h-.01c-.21.004-.411.049-.56.17-.152.123-.248.32-.246.627a6.825 6.825 0 0 0 .007.217.846.846 0 0 0 .25.54.816.816 0 0 0 .55.23h.001z"
         style="fill:#ffffff;fill-opacity:1" /><path
         id="_215582408"
         class="fil1"
         d="M3.578 1.79a.168.168 0 0 0 .127.05h.035c.062 0 .1-.016.122-.043.043-.053.043-.175 0-.228-.022-.026-.06-.043-.122-.043a1.775 1.775 0 0 0-.054.002.17.17 0 0 0-.11.047.156.156 0 0 0 .002.214zm-.257.069a.268.268 0 0 1-.196.081h-.038c-.097.001-.16-.03-.2-.08a.314.314 0 0 1 0-.354c.04-.05.103-.081.2-.08a2.02 2.02 0 0 1 .063.002.25.25 0 0 1 .214.134h.098a.25.25 0 0 1 .041-.057.268.268 0 0 1 .199-.079h.038c.097-.001.16.03.2.08a.314.314 0 0 1 0 .355c-.04.05-.103.08-.2.08a2.054 2.054 0 0 1-.064-.002.258.258 0 0 1-.243-.276h-.04a.258.258 0 0 1-.072.196zm-.07-.284a.17.17 0 0 0-.11-.047.375.375 0 0 0-.055-.002c-.062 0-.1.017-.121.043-.043.053-.043.175 0 .228.021.027.06.044.121.043a1.867 1.867 0 0 0 .055-.001c.137-.014.202-.17.11-.264z"
         style="fill:#ffffff;fill-opacity:1" /></g></g></svg>
